<?xml version="1.0" standalone="no"?>
<!DOCTYPE svg PUBLIC "-//W3C//DTD SVG 20010904//EN"
 "http://www.w3.org/TR/2001/REC-SVG-20010904/DTD/svg10.dtd">
<svg version="1.0" xmlns="http://www.w3.org/2000/svg"
 width="255.000000pt" height="255.000000pt" viewBox="0 0 255.000000 255.000000"
 preserveAspectRatio="xMidYMid meet">
<metadata>
Created by potrace 1.10, written by Peter Selinger 2001-2011
</metadata>
<g transform="translate(0.000000,255.000000) scale(0.100000,-0.100000)"
fill="#FFFFFF" stroke="none">
<path d="M1005 2433 c-90 -19 -212 -66 -249 -96 l-30 -24 125 -5 c132 -6 210
-26 269 -68 40 -28 33 -35 -15 -15 -20 9 -39 14 -41 12 -3 -2 -11 -44 -20 -93
-28 -162 -104 -430 -144 -503 -14 -27 -14 -27 62 -66 96 -51 48 -59 -56 -10
l-48 23 -72 -34 c-80 -37 -195 -72 -351 -106 -58 -13 -105 -26 -105 -30 0 -11
77 -61 145 -96 166 -83 392 -133 689 -151 265 -16 600 21 797 88 l52 17 -29
20 c-16 10 -38 24 -48 30 -11 6 -22 16 -24 22 -2 8 18 3 50 -11 93 -41 109
-41 175 2 32 21 71 52 86 69 l29 30 -104 7 c-278 19 -392 65 -479 192 -25 36
-106 205 -141 293 -9 24 -10 24 -40 -25 -34 -55 -48 -49 -24 10 21 48 20 81
-4 190 -34 156 -111 284 -193 324 -52 25 -156 27 -262 4z"/>
<path d="M485 1209 c-82 -13 -95 -19 -95 -37 0 -9 66 -91 146 -182 81 -91 153
-172 160 -181 13 -14 9 -18 -33 -34 -86 -31 -293 -138 -293 -150 0 -7 205
-126 455 -264 l454 -253 188 104 c103 58 308 171 456 253 147 81 267 154 267
160 0 12 -208 119 -293 150 -42 16 -46 20 -33 34 7 9 79 90 160 181 80 90 146
172 146 181 0 22 -15 27 -127 41 -114 15 -126 10 -134 -58 -8 -66 -46 -156
-104 -251 -56 -91 -186 -224 -387 -397 l-138 -117 -142 122 c-207 177 -333
309 -393 408 -57 97 -94 198 -95 259 l0 42 -57 -1 c-32 -1 -80 -5 -108 -10z"/>
<path d="M970 1145 c43 -46 158 -61 201 -26 l24 19 -35 6 c-19 3 -65 10 -101
16 -36 5 -76 10 -89 10 l-23 0 23 -25z"/>
<path d="M1485 1153 c-22 -2 -55 -6 -73 -9 -33 -5 -33 -6 -16 -25 31 -34 161
-21 199 21 18 20 17 20 -26 18 -24 -1 -62 -3 -84 -5z"/>
<path d="M924 1025 c8 -66 52 -165 89 -203 55 -58 254 -222 268 -222 8 0 73
49 146 109 155 130 184 172 218 325 7 32 18 33 -115 -4 -154 -42 -408 -36
-546 14 l-67 24 7 -43z"/>
</g>
</svg>
