<svg version="1.1" id="Layer_1" xmlns="http://www.w3.org/2000/svg" xmlns:xlink="http://www.w3.org/1999/xlink" x="0px" y="0px"
	 width="100%" viewBox="0 0 240 240" enable-background="new 0 0 240 240" xml:space="preserve">
<path fill="#000000" opacity="1.000000" stroke="none" 
	d="
M121.000000,241.000000 
	C81.018539,241.000000 41.037083,241.000000 1.027813,241.000000 
	C1.027813,161.055634 1.027813,81.111252 1.027813,1.083438 
	C80.907219,1.083438 160.814545,1.083438 240.860931,1.083438 
	C240.860931,80.999847 240.860931,160.999878 240.860931,241.000000 
	C206.572174,241.000000 172.254745,241.000000 137.552216,240.660629 
	C138.104248,239.641815 138.982208,238.855576 139.987259,238.298767 
	C158.485687,228.050598 177.050613,217.921158 195.485397,207.560059 
	C203.258438,203.191284 211.417023,199.434128 219.244415,193.833359 
	C208.983780,185.839539 197.087158,182.351135 186.003098,176.924789 
	C188.001007,172.400543 191.425110,169.641113 194.208710,166.423340 
	C200.963348,158.615158 207.884903,150.951630 214.674438,143.173294 
	C216.749268,140.796265 218.250275,137.820419 213.827179,136.735458 
	C208.700684,135.477951 203.355804,135.031982 198.079025,134.497101 
	C195.145798,134.199768 193.567871,135.864441 193.052994,138.844727 
	C190.042236,156.272156 180.880539,170.393433 168.719727,182.686172 
	C157.230896,194.299637 144.465103,204.526596 132.195572,215.290955 
	C129.856461,217.343140 128.092285,217.335556 125.763275,215.262924 
	C116.059753,206.627518 106.115471,198.260498 96.482925,189.547989 
	C80.866615,175.423294 68.305283,159.344131 64.874268,137.751480 
	C64.432083,134.968643 62.619606,134.173904 60.209709,134.448685 
	C55.265640,135.012436 50.292278,135.494675 45.419331,136.457611 
	C40.495525,137.430618 39.961967,139.311737 43.324600,143.213501 
	C48.217422,148.890778 53.409019,154.313797 58.221001,160.056564 
	C62.780632,165.498154 68.120026,170.309814 72.446846,176.744644 
	C60.825069,182.068069 49.112022,186.132797 38.972130,193.382233 
	C40.537926,195.599564 42.223701,196.375763 43.805866,197.255844 
	C66.651718,209.963776 89.524521,222.623444 112.340256,235.385162 
	C115.332130,237.058624 118.906876,237.913742 121.000000,241.000000 
M148.605698,58.189705 
	C148.988022,55.634315 147.996185,53.262676 147.587250,50.818340 
	C145.639587,39.177162 142.086685,28.183575 134.241272,19.026436 
	C129.902679,13.962464 124.544968,11.222950 117.649086,11.328449 
	C105.450981,11.515065 93.975487,14.564356 82.914238,19.430147 
	C81.087807,20.233583 78.824295,20.895247 78.319580,24.388191 
	C91.967850,24.745052 105.717346,24.353224 116.861626,34.132599 
	C115.242874,35.785927 114.219978,35.077011 113.142120,34.683193 
	C108.369293,32.939339 107.224754,33.513134 106.481873,38.381767 
	C103.787155,56.042118 99.198326,73.199860 92.629433,89.796402 
	C91.183533,93.449532 92.188210,95.295959 95.352188,96.993935 
	C98.154984,98.498093 101.617714,99.251556 103.606071,103.112045 
	C98.381790,103.473839 94.442627,101.147736 90.302406,99.770844 
	C88.071152,99.028809 86.022049,98.199913 83.624321,99.511185 
	C74.779541,104.348213 65.063751,106.764694 55.414742,109.312897 
	C49.204552,110.952950 42.942696,112.397362 35.546997,114.213600 
	C40.670273,119.610268 46.335857,121.952728 51.734043,124.642311 
	C71.705338,134.592789 93.532303,136.743240 115.183205,138.366501 
	C142.024017,140.378845 168.692169,137.844620 194.702011,130.333023 
	C196.303955,129.870392 198.452927,129.972092 199.188309,128.150635 
	C197.924301,124.395187 192.391006,125.036369 191.863586,120.248116 
	C198.127258,120.731918 203.094574,126.518837 209.166824,124.374039 
	C214.627380,122.445282 219.431396,118.915703 223.079895,114.259499 
	C221.226791,112.187805 219.651108,112.497719 218.189651,112.352936 
	C211.737686,111.713760 205.275909,111.153839 198.839096,110.385742 
	C182.021225,108.378876 169.454758,100.459671 162.749115,84.345528 
	C160.575836,79.122948 158.101303,74.024605 155.716003,68.891998 
	C154.903305,67.143326 154.534119,65.035423 152.434708,64.193481 
	C149.396652,64.999283 149.633118,69.229668 146.205505,69.848579 
	C144.723785,65.679779 148.480484,62.719391 148.605698,58.189705 
M131.655548,193.930756 
	C139.206879,187.674957 147.014954,181.699265 154.234665,175.081680 
	C160.961685,168.915665 163.431808,160.587921 164.862869,150.814651 
	C140.642517,158.580490 117.366249,158.248795 93.402313,150.839035 
	C95.508232,160.978104 97.792740,169.683777 105.262032,176.007645 
	C111.985504,181.700058 118.650017,187.462280 125.391998,193.132523 
	C127.024109,194.505173 128.762817,196.103607 131.655548,193.930756 
M101.754440,143.551743 
	C106.673958,145.145905 111.596306,147.236252 117.934837,143.220627 
	C110.846153,140.822067 104.748199,140.859985 98.326096,139.605835 
	C99.009911,141.853409 100.015579,142.638016 101.754440,143.551743 
M148.928452,141.561035 
	C146.545609,142.397400 143.724579,141.528656 141.355850,143.231842 
	C146.150238,147.035629 155.105637,146.003479 158.804306,140.907547 
	C155.497650,141.122696 152.630981,141.309219 148.928452,141.561035 
z"/>
</svg>