<svg xmlns="http://www.w3.org/2000/svg" width="20" height="20"><rect width="100%" height="100%" fill="none"/><path fill="none" stroke="#5d40d4" d="M-10-10A10 10 0 0 0-20 0a10 10 0 0 0 10 10A10 10 0 0 1 0 0a10 10 0 0 0-10-10zm20 0A10 10 0 0 0 0 0a10 10 0 0 1 10 10A10 10 0 0 1 20 0a10 10 0 0 0-10-10zm20 0A10 10 0 0 0 20 0a10 10 0 0 1 10 10A10 10 0 0 1 40 0a10 10 0 0 0-10-10zm-40 20a10 10 0 0 0-10 10 10 10 0 0 0 10 10A10 10 0 0 1 0 20a10 10 0 0 0-10-10zm20 0A10 10 0 0 0 0 20a10 10 0 0 1 10 10 10 10 0 0 1 10-10 10 10 0 0 0-10-10zm20 0a10 10 0 0 0-10 10 10 10 0 0 1 10 10 10 10 0 0 1 10-10 10 10 0 0 0-10-10z"/></svg>